<?xml version="1.0" encoding="UTF-8" standalone="no"?>
<svg width="500px" height="500px" viewBox="0 0 500 500" version="1.1" xmlns="http://www.w3.org/2000/svg" xmlns:xlink="http://www.w3.org/1999/xlink" xmlns:sketch="http://www.bohemiancoding.com/sketch/ns">
    <!-- Generator: Sketch 3.4.2 (15855) - http://www.bohemiancoding.com/sketch -->
    <title>Safari Pinned Tabs</title>
    <desc>Created with Sketch.</desc>
    <defs></defs>
    <g id="Page-1" stroke="none" stroke-width="1" fill="none" fill-rule="evenodd" sketch:type="MSPage">
        <g id="Safari-Pinned-Tabs" sketch:type="MSLayerGroup" fill="#000000">
            <path d="M249.649197,241.316882 C284.764327,241.316882 313.205418,220.783115 313.205418,212.991287 C313.205418,205.19946 284.764327,227.564579 249.649197,227.564579 C214.534066,227.564579 186.512415,205.19946 186.512415,212.991287 C186.512415,220.783115 214.534066,241.316882 249.649197,241.316882 Z" id="Mouth" sketch:type="MSShapeGroup"></path>
            <circle id="Right-Eye" sketch:type="MSShapeGroup" cx="282.731377" cy="166.478555" r="14.1083521"></circle>
            <circle id="Left-Eye" sketch:type="MSShapeGroup" cx="215.011287" cy="166.478555" r="14.1083521"></circle>
            <path d="M250,500 C388.071187,500 500,388.071187 500,250 C500,111.928813 388.071187,0 250,0 C111.928813,0 0,111.928813 0,250 C0,388.071187 111.928813,500 250,500 Z M128.528341,244.275666 C128.528341,260.486493 146.076143,409.743535 162.407642,426.352707 C188.00247,452.382703 210.610448,297.66765 250,297.66765 C286.701581,297.66765 303.7246,449.321845 328.820477,426.352707 C346.969106,409.742075 364.416535,265.232755 371.041489,244.275666 C377.666444,223.318577 391.083521,171.25928 391.083521,156.584129 C391.083521,103.006628 346.123711,57.0791329 302.13271,74.8677891 C282.147173,82.9493473 274.340776,94.3412706 250,94.3412706 C223.32026,94.3412706 225.125461,83.7544464 203.848569,74.8677892 C162.986219,57.8009314 108.916479,105.345591 108.916479,156.584129 C108.916479,169.979243 128.528341,228.064839 128.528341,244.275666 Z" id="Outer-Circle-Plus-Tooth" sketch:type="MSShapeGroup"></path>
        </g>
    </g>
</svg>