<?xml version="1.0" encoding="UTF-8" standalone="no"?>
<svg width="500px" height="500px" viewBox="0 0 500 500" version="1.1" xmlns="http://www.w3.org/2000/svg" xmlns:xlink="http://www.w3.org/1999/xlink" xmlns:sketch="http://www.bohemiancoding.com/sketch/ns">
    <!-- Generator: Sketch 3.5.1 (25234) - http://www.bohemiancoding.com/sketch -->
    <title>Safari Pinned Tabs</title>
    <desc>Created with Sketch.</desc>
    <defs></defs>
    <g id="Page-1" stroke="none" stroke-width="1" fill="none" fill-rule="evenodd" sketch:type="MSPage">
        <g id="Circle" sketch:type="MSArtboardGroup" transform="translate(-250.000000, -1250.000000)" fill="#000000">
            <path d="M500,1750 C638.071187,1750 750,1638.07119 750,1500 C750,1361.92881 638.071187,1250 500,1250 C361.928813,1250 250,1361.92881 250,1500 C250,1638.07119 361.928813,1750 500,1750 Z M388.140659,1505.39759 C388.140659,1520.40139 404.372095,1658.54508 419.478471,1673.91757 C443.153277,1698.00943 464.065294,1554.81412 500.5,1554.81412 C534.448375,1554.81412 550.194395,1695.17648 573.40768,1673.91757 C590.194872,1658.54373 606.333464,1524.79426 612.461441,1505.39759 C618.589418,1486.00092 631,1437.81784 631,1424.23537 C631,1374.64713 589.412895,1332.13929 548.721922,1348.60345 C530.235621,1356.08327 523.014828,1366.62697 500.5,1366.62697 C475.821668,1366.62697 477.491449,1356.82842 457.810664,1348.60345 C420.013645,1332.80735 370,1376.81194 370,1424.23537 C370,1436.63311 388.140659,1490.39378 388.140659,1505.39759 Z" id="Safari-Pinned-Tabs" sketch:type="MSShapeGroup"></path>
        </g>
    </g>
</svg>